<mxfile host="app.diagrams.net" modified="2022-09-18T19:58:35.498Z" agent="5.0 (Windows NT 10.0; Win64; x64) AppleWebKit/537.36 (KHTML, like Gecko) Chrome/105.0.0.0 Safari/537.36 Edg/105.0.1343.33" etag="A24psS8eIrCFiz4yDrei" version="20.2.5" type="github">
  <diagram id="mo5XwF6kTmqCkqBOuB3H" name="PÃ¡gina-1">
    <mxGraphModel dx="868" dy="442" grid="1" gridSize="10" guides="1" tooltips="1" connect="1" arrows="1" fold="1" page="1" pageScale="1" pageWidth="827" pageHeight="1169" math="0" shadow="0">
      <root>
        <mxCell id="0" />
        <mxCell id="1" parent="0" />
        <mxCell id="nrblLpnyQ01afY77vL77-1" value="" style="rounded=0;whiteSpace=wrap;html=1;" parent="1" vertex="1">
          <mxGeometry x="160" y="150" width="360" height="290" as="geometry" />
        </mxCell>
        <mxCell id="kfMx4ClthwhLcEWUvo8j-1" value="Vertical Container" style="swimlane;" vertex="1" parent="1">
          <mxGeometry x="580" y="190" width="200" height="200" as="geometry" />
        </mxCell>
      </root>
    </mxGraphModel>
  </diagram>
</mxfile>
